<?xml version="1.0" standalone="no"?>
<!DOCTYPE svg PUBLIC "-//W3C//DTD SVG 1.1//EN" "http://www.w3.org/Graphics/SVG/1.1/DTD/svg11.dtd" >
<svg xmlns="http://www.w3.org/2000/svg">
<metadata>
This is a custom SVG webfont generated by Font Squirrel.
Copyright   : Copyright 19901995 as an unpublished work by Bitstream Inc All rights reserved PL modification c 1995 Kuba Tatarkiewicz
</metadata>
<defs>
<font id="Swis721CnPLRoman" horiz-adv-x="1083" >
<font-face units-per-em="2048" ascent="1634" descent="-414" />
<missing-glyph horiz-adv-x="540" />
<glyph unicode=" "  horiz-adv-x="540" />
<glyph unicode="&#x09;" horiz-adv-x="540" />
<glyph unicode="&#xa0;" horiz-adv-x="540" />
<glyph unicode="!" horiz-adv-x="563" d="M182 1169v465h199v-465l-47 -768h-107zM190 0v223h183v-223h-183z" />
<glyph unicode="&#x22;" horiz-adv-x="651" d="M96 934v590h148v-590h-148zM410 934v590h147v-590h-147z" />
<glyph unicode="#" horiz-adv-x="1671" d="M94 475l56 156h329l96 280h-350l56 154h352l172 483h176l-172 -483h272l174 483h172l-167 -483h319l-55 -154h-322l-98 -280h342l-55 -156h-340l-172 -479h-177l172 479h-274l-172 -479h-176l170 479h-328zM655 631h275l98 280h-276z" />
<glyph unicode="$" d="M80 459q0 41 2 63h178q0 -10 -1 -26.5t-1 -24.5q0 -322 217 -321h10v614q-201 68 -292 172t-91 274q0 180 102.5 290t280.5 118v147h93v-145q373 -37 372 -399v-25h-174v8q0 236 -198 266v-550q227 -82 322 -183.5t95 -279.5q0 -211 -109.5 -330t-307.5 -127v-211h-93 v209q-405 21 -405 461zM281 1210q0 -98 49 -159.5t155 -98.5v521q-94 -10 -149 -81t-55 -182zM578 147q109 6 172 83t63 210q0 209 -235 287v-580z" />
<glyph unicode="%" horiz-adv-x="1517" d="M100 1225q0 391 293 391q303 0 303 -389q0 -201 -77.5 -305.5t-223.5 -104.5q-154 0 -224.5 99.5t-70.5 308.5zM250 1198q0 -129 33.5 -189.5t111.5 -60.5q80 0 115 67.5t35 213.5q0 256 -150 256q-84 0 -114.5 -65.5t-30.5 -221.5zM324 -31l737 1678h125l-735 -1678 h-127zM821 408q0 391 295 391q301 0 301 -391q0 -199 -76.5 -303.5t-220.5 -104.5q-154 0 -226.5 100.5t-72.5 307.5zM969 381q0 -250 149 -250q80 0 115 67.5t35 213.5q0 256 -150 256q-84 0 -116.5 -66.5t-32.5 -220.5z" />
<glyph unicode="&#x26;" horiz-adv-x="1331" d="M121 451q0 156 79 271.5t249 215.5q-158 205 -158 369q0 145 90 238t235 93q139 0 230.5 -88t91.5 -227q0 -240 -272 -408l313 -456q37 115 51 303h174q-18 -281 -123 -445l219 -317h-210l-113 158q-158 -186 -406 -187q-197 0 -323.5 133.5t-126.5 346.5zM307 459 q0 -135 84 -229.5t213 -94.5q170 0 283 158l-359 522q-221 -145 -221 -356zM463 1315q0 -111 125 -283q178 117 178 285q0 80 -41 126t-113 46q-70 0 -109.5 -46t-39.5 -128z" />
<glyph unicode="'" horiz-adv-x="337" d="M96 934v590h148v-590h-148z" />
<glyph unicode="(" horiz-adv-x="694" d="M199 588q0 561 336 1046h124q-150 -231 -211 -479t-61 -561q0 -426 98 -688q63 -168 174 -381h-124q-172 279 -254 531.5t-82 531.5z" />
<glyph unicode=")" horiz-adv-x="694" d="M59 -475q104 199 172 381q98 268 99 688q0 313 -60.5 562t-210.5 478h123q338 -483 338 -1046q0 -276 -83 -529.5t-255 -533.5h-123z" />
<glyph unicode="*" horiz-adv-x="1087" d="M129 1280l47 145l299 -108v317h131v-317l299 104l53 -139l-315 -86l213 -262l-123 -88l-192 276l-189 -276l-125 88l213 262z" />
<glyph unicode="+" horiz-adv-x="1810" d="M270 573v148h561v575h150v-575h561v-148h-561v-573h-150v573h-561z" />
<glyph unicode="," horiz-adv-x="542" d="M170 0v223h192v-223q0 -125 -52 -208t-140 -105v102q90 16 90 201v10h-90z" />
<glyph unicode="-" horiz-adv-x="716" d="M96 516v191h525v-191h-525z" />
<glyph unicode="." horiz-adv-x="542" d="M174 0v223h193v-223h-193z" />
<glyph unicode="/" horiz-adv-x="604" d="M-82 -203l582 1876h116l-581 -1876h-117z" />
<glyph unicode="0" d="M100 809q0 440 96.5 638t344.5 198q233 0 352 -218q90 -160 90 -620q0 -440 -97.5 -640t-336.5 -200q-254 0 -351.5 198t-97.5 644zM289 813q0 -373 52 -529.5t202 -156.5q158 0 204 151.5t46 532.5q0 367 -50.5 520.5t-201.5 153.5q-154 0 -203 -150.5t-49 -521.5z" />
<glyph unicode="1" d="M164 1202v139h20q344 0 359 306h143v-1647h-176v1202h-346z" />
<glyph unicode="2" d="M104 63q0 313 285 572l87 77l89 79l63 59q38 37 62 65q84 100 84 279q0 141 -63.5 216t-178.5 75q-238 0 -237 -336q0 -2 1 -19.5t1 -35.5h-176q0 10 -1 29.5t-1 29.5q0 240 110.5 368t311.5 128q199 0 310.5 -117t111.5 -330q0 -199 -91 -340q-20 -33 -55 -68.5 t-59 -56.5l-83 -68l-79 -65q-156 -127 -230.5 -228.5t-76.5 -207.5h688v-168h-871q-2 22 -2 63z" />
<glyph unicode="3" d="M86 471v16h182v-26q0 -334 250 -334q270 0 270 332q0 164 -78.5 241.5t-244.5 77.5q-37 0 -55 -2v150h36q154 0 225.5 69.5t71.5 218.5q0 129 -62.5 201t-172.5 72q-219 0 -219 -301v-27h-174v23q0 217 107.5 340t291.5 123q188 0 299 -110t111 -300q0 -152 -62.5 -250 t-167.5 -117q283 -51 283 -401q0 -238 -120 -369t-339 -131q-211 0 -321.5 129t-110.5 375z" />
<glyph unicode="4" d="M68 418v157l606 1070h160v-1072h151v-155h-151v-418h-175v418h-591zM217 573h442l19 838z" />
<glyph unicode="5" d="M94 430h178v-12q0 -139 63.5 -214t180.5 -75q127 0 194.5 101.5t67.5 295.5q0 389 -268 389q-180 0 -229 -151l-154 12l88 840h690v-166h-549l-59 -487q25 51 94.5 84.5t163.5 33.5q188 0 300 -140t112 -390q0 -279 -118 -431.5t-331 -152.5q-205 0 -313.5 119 t-110.5 344z" />
<glyph unicode="6" d="M102 750q0 469 107.5 683t363.5 214q174 0 276.5 -106.5t102.5 -285.5h-180v11q0 104 -55 162.5t-150 58.5q-156 0 -215 -145.5t-78 -495.5q78 205 306 205q195 0 306 -136.5t111 -382.5q0 -262 -118.5 -413.5t-315.5 -151.5q-246 0 -353.5 190t-107.5 593zM295 530 q0 -195 70.5 -300t197.5 -105q119 0 183.5 103.5t64.5 295.5q0 369 -260 369q-133 0 -194.5 -88.5t-61.5 -274.5z" />
<glyph unicode="7" d="M98 1438v178h887v-158q-477 -633 -526 -1458h-205q100 821 573 1438h-729z" />
<glyph unicode="8" d="M100 455q0 180 76 292.5t209 135.5q-231 66 -231 344q0 197 105.5 308.5t289.5 111.5q178 0 283.5 -110t105.5 -298q0 -285 -236 -350q143 -33 212 -133.5t69 -276.5q0 -246 -116.5 -379t-325.5 -133q-201 0 -321 132.5t-120 355.5zM287 487q0 -360 258 -360 q117 0 184.5 88t67.5 244q0 176 -64.5 261t-197.5 85q-117 0 -182.5 -82t-65.5 -236zM330 1221q0 -119 57 -189.5t152 -70.5q106 0 162.5 69.5t56.5 198.5q0 123 -58.5 192.5t-160.5 69.5q-209 0 -209 -270z" />
<glyph unicode="9" d="M84 1081q0 262 119 414t317 152q246 0 353.5 -189.5t107.5 -595.5q0 -467 -108.5 -681t-364.5 -214q-172 0 -275.5 105.5t-103.5 285.5h182v-10q0 -104 55.5 -162.5t149.5 -58.5q156 0 214 143.5t79 495.5q-82 -205 -307 -205q-195 0 -306.5 137t-111.5 383zM272 1087 q0 -369 260 -368q133 0 193.5 89t60.5 275q0 195 -69.5 299.5t-196.5 104.5q-121 0 -184.5 -103.5t-63.5 -296.5z" />
<glyph unicode=":" horiz-adv-x="542" d="M174 0v223h193v-223h-193zM174 983v223h193v-223h-193z" />
<glyph unicode=";" horiz-adv-x="542" d="M174 0v223h193v-223q0 -125 -52.5 -208t-140.5 -105v102q94 16 94 201v10h-94zM174 983v223h193v-223h-193z" />
<glyph unicode="&#x3c;" horiz-adv-x="1810" d="M281 580v137l1249 514v-164l-1028 -420l1028 -416v-163z" />
<glyph unicode="=" horiz-adv-x="1810" d="M270 362v148h1272v-148h-1272zM270 784v148h1272v-148h-1272z" />
<glyph unicode="&#x3e;" horiz-adv-x="1810" d="M281 68v163l1030 416l-1030 420v164l1249 -514v-137z" />
<glyph unicode="?" horiz-adv-x="1081" d="M164 1159v29q0 238 103.5 361.5t299.5 123.5q188 0 299 -112.5t111 -309.5q0 -72 -13.5 -130t-47 -113.5t-57 -86t-77.5 -94.5q-57 -66 -83.5 -102.5t-51 -104t-24.5 -145.5q0 -39 2 -63h-168q-2 37 -2 82q0 94 25.5 171.5t55 121.5t93.5 120q94 111 119 168 q37 80 36 182q0 121 -58 190t-157 69q-229 0 -229 -324v-33h-176zM449 0v223h180v-223h-180z" />
<glyph unicode="@" horiz-adv-x="2174" d="M113 555q0 354 215 616q315 385 858 385q360 0 596 -182q281 -215 280 -547q0 -377 -262 -583q-150 -119 -336 -119q-213 0 -213 166v20q-113 -184 -319 -184q-162 0 -247 90t-85 262q0 250 146.5 418t359.5 168q180 0 258 -158l59 121h140l-154 -610q-8 -35 -8 -64 q0 -100 106.5 -100t221.5 108q84 80 132 198t48 249q0 272 -201 444t-532 172q-281 0 -484 -120.5t-314.5 -317t-111.5 -434.5q0 -369 269 -573q221 -168 557 -168q367 0 659 200l57 -86q-313 -238 -704 -237q-408 0 -668 198q-323 248 -323 668zM770 473q0 -113 51 -172 t146 -59q102 0 184 71.5t113 190.5l63 250q-39 197 -211 196q-147 0 -246.5 -138t-99.5 -339z" />
<glyph unicode="A" horiz-adv-x="1196" d="M33 0l446 1634h232l452 -1634h-184l-125 471h-516l-121 -471h-184zM379 637h434l-217 856z" />
<glyph unicode="B" horiz-adv-x="1175" d="M145 0v1634h426q229 0 334 -96t105 -311q0 -293 -228 -357q279 -55 279 -401q0 -223 -123 -346t-348 -123h-445zM322 162h233q166 0 239.5 69.5t73.5 229.5q0 180 -78.5 253.5t-267.5 73.5h-200v-626zM322 940h192q168 0 238.5 62.5t70.5 220.5q0 152 -72.5 209 t-248.5 57h-180v-549z" />
<glyph unicode="C" horiz-adv-x="1228" d="M113 813q0 449 118.5 654.5t391.5 205.5q223 0 345 -130t122 -369v-19h-177q0 168 -78.5 263t-213.5 95q-172 0 -243 -165.5t-71 -534.5q0 -356 73 -517t251 -161q137 0 213 112.5t76 325.5v27h180q-2 -313 -129 -476t-363 -163q-254 0 -374.5 210t-120.5 642z" />
<glyph unicode="D" horiz-adv-x="1265" d="M145 0v1634h463q279 0 411 -186t132 -576q0 -535 -188 -739q-76 -84 -163 -108.5t-233 -24.5h-422zM328 156h237q207 0 277 98q63 94 85.5 226t22.5 335q0 379 -77.5 520.5t-313.5 141.5h-231v-1321z" />
<glyph unicode="E" horiz-adv-x="1064" d="M145 0v1634h811v-170h-630v-524h589v-166h-589v-602h637v-172h-818z" />
<glyph unicode="F" horiz-adv-x="940" d="M145 0v1634h754v-164h-567v-526h528v-170h-528v-774h-187z" />
<glyph unicode="G" horiz-adv-x="1290" d="M113 827q0 440 129 643t422 203q221 0 346 -133t127 -373h-181q-4 168 -82.5 259.5t-218.5 91.5q-199 0 -275.5 -174.5t-76.5 -567.5q0 -326 85 -484.5t263 -158.5q160 0 245 122t85 357q0 49 -2 74h-371v166h547v-852h-141l-13 225q-43 -127 -140 -195.5t-234 -68.5 q-266 0 -390 212t-124 654z" />
<glyph unicode="H" horiz-adv-x="1273" d="M145 0v1634h187v-673h610v673h186v-1634h-186v797h-610v-797h-187z" />
<glyph unicode="I" horiz-adv-x="479" d="M145 0v1634h187v-1634h-187z" />
<glyph unicode="J" horiz-adv-x="915" d="M37 375v131h176v-158q0 -231 184 -231q127 0 162 82t35 290v1145h176v-1269q0 -401 -381 -402q-352 0 -352 412z" />
<glyph unicode="K" horiz-adv-x="1177" d="M145 0v1634h181v-786l592 786h210l-507 -659l544 -975h-221l-446 815l-172 -223v-592h-181z" />
<glyph unicode="L" horiz-adv-x="1034" d="M145 0v1634h183v-1458h653v-176h-836z" />
<glyph unicode="M" horiz-adv-x="1603" d="M143 0v1634h308l342 -1392l362 1392h301v-1634h-178v1542l-397 -1542h-179l-380 1542v-1542h-179z" />
<glyph unicode="N" horiz-adv-x="1261" d="M145 0v1634h244l567 -1401l-16 1401h176v-1634h-233l-576 1444l15 -1444h-177z" />
<glyph unicode="O" horiz-adv-x="1273" d="M113 817q0 449 120.5 652.5t403.5 203.5q285 0 404.5 -201.5t119.5 -654t-119.5 -654.5t-404.5 -202q-281 0 -402.5 205t-121.5 651zM303 817q0 -377 70.5 -536.5t263.5 -159.5q197 0 266.5 157.5t69.5 538.5t-69.5 537.5t-266.5 156.5q-195 0 -264.5 -158.5 t-69.5 -535.5z" />
<glyph unicode="P" horiz-adv-x="1153" d="M145 0v1634h420q264 0 389 -108.5t125 -347.5q0 -242 -129 -367t-379 -125h-243v-686h-183zM328 852h239q166 0 244 79t78 249q0 158 -80 227.5t-252 69.5h-229v-625z" />
<glyph unicode="Q" horiz-adv-x="1273" d="M113 817q0 449 120.5 652.5t403.5 203.5q285 0 404.5 -201.5t119.5 -654.5q0 -449 -106 -620l184 -152l-98 -123l-178 144q-94 -104 -326 -105q-281 0 -402.5 205t-121.5 651zM305 817q0 -377 69.5 -536.5t262.5 -159.5q123 0 190 59l-170 146l105 123l153 -132 q57 203 58 480q0 395 -67.5 554.5t-268.5 159.5q-195 0 -263.5 -158.5t-68.5 -535.5z" />
<glyph unicode="R" horiz-adv-x="1269" d="M145 0v1634h459q252 0 376 -103.5t124 -316.5q0 -322 -303 -399q135 -10 202.5 -87t83.5 -236l9.5 -137.5t9.5 -125.5t12 -93t24.5 -81.5t43.5 -54.5h-228q-16 27 -25 74t-12 90t-7.5 127t-8.5 141q-14 172 -88 233.5t-260 61.5h-233v-727h-179zM324 885h221 q190 0 281.5 73.5t91.5 231.5q0 152 -81 218.5t-257 66.5h-256v-590z" />
<glyph unicode="S" horiz-adv-x="1165" d="M109 465q0 10 1 28.5t1 26.5h174v-59q0 -336 305 -336q135 0 213 81t78 224q0 131 -56.5 189.5t-203.5 113.5q-41 16 -116 43t-107.5 40t-70.5 31.5t-57 35.5q-135 117 -135 338q0 213 117 332.5t328 119.5q201 0 314.5 -110.5t113.5 -307.5q0 -6 -2 -20t-2 -23h-166v19 q0 137 -69 212t-191 75q-125 0 -199 -72t-74 -195q0 -131 59.5 -189t206.5 -114l73 -26q50 -18 71 -27l57 -23q37 -14 55.5 -22t43 -20.5t40 -23.5t27.5 -22q119 -111 119 -329q0 -233 -128 -362.5t-360 -129.5q-227 0 -343.5 127t-116.5 375z" />
<glyph unicode="T" horiz-adv-x="1056" d="M31 1468v166h995v-166h-391v-1468h-186v1468h-418z" />
<glyph unicode="U" horiz-adv-x="1251" d="M147 567v1067h183v-1099q0 -217 61.5 -312.5t225 -95.5t237.5 99.5t74 308.5v1099h178v-1067q0 -117 -3 -174t-26.5 -134t-72.5 -134q-133 -162 -390 -162q-264 0 -391 170q-47 66 -61.5 163t-14.5 271z" />
<glyph unicode="V" horiz-adv-x="1140" d="M6 1634h199l366 -1409l379 1409h183l-451 -1634h-219z" />
<glyph unicode="W" horiz-adv-x="1720" d="M27 1634h188l256 -1382l291 1382h207l282 -1372l262 1372h179l-346 -1634h-195l-289 1335l-291 -1335h-198z" />
<glyph unicode="X" horiz-adv-x="1073" d="M-27 0l455 846l-432 788h221l324 -618l329 618h209l-438 -784l459 -850h-219l-346 684l-351 -684h-211z" />
<glyph unicode="Y" horiz-adv-x="1091" d="M-33 1634h217l361 -803l379 803h198l-487 -1001v-633h-184v633z" />
<glyph unicode="Z" horiz-adv-x="960" d="M49 0v170l660 1294h-623v170h817v-166l-655 -1292h663v-176h-862z" />
<glyph unicode="[" horiz-adv-x="694" d="M248 -461v2095h385v-129h-209v-1833h209v-133h-385z" />
<glyph unicode="\" horiz-adv-x="604" d="M0 1673h117l583 -1876h-116z" />
<glyph unicode="]" horiz-adv-x="694" d="M61 -328h209v1833h-209v129h385v-2095h-385v133z" />
<glyph unicode="^" horiz-adv-x="2174" d="M446 956l541 592h199l540 -592h-192l-447 447l-450 -447h-191z" />
<glyph unicode="_" horiz-adv-x="1087" d="M0 -360h1087v-154h-1087v154z" />
<glyph unicode="`" horiz-adv-x="1087" d="M303 1640h189l180 -286h-107z" />
<glyph unicode="a" horiz-adv-x="968" d="M96 309q0 178 79 255t284 145q119 39 154.5 63.5t35.5 83.5v113q0 76 -44 110.5t-136 34.5q-180 0 -180 -194v-23h-160q2 188 88 274t272 86q172 0 253 -78.5t81 -250.5v-715q0 -88 72 -88q8 0 29 4v-131q-61 -10 -101 -10q-72 0 -113.5 45t-43.5 131q-82 -195 -289 -195 q-133 0 -207 89t-74 251zM268 311q0 -92 40 -142t114 -50q104 0 168.5 81t64.5 218v241q-45 -49 -196 -100q-109 -39 -150 -86t-41 -162z" />
<glyph unicode="b" horiz-adv-x="1040" d="M133 0v1634h170v-538q20 70 94 111.5t170 41.5q176 0 276.5 -155.5t100.5 -444.5q0 -332 -99.5 -503t-285.5 -171q-98 0 -172 49.5t-96 129.5v-154h-158zM291 621q0 -256 54 -374t185 -118q123 0 174.5 121t51.5 383q0 236 -55.5 350.5t-176.5 114.5q-133 0 -183 -112.5 t-50 -364.5z" />
<glyph unicode="c" horiz-adv-x="999" d="M100 621q0 635 410 634q170 0 270.5 -104t100.5 -285v-26h-168q-10 262 -195 262q-129 0 -181 -115t-52 -375t52 -376.5t183 -116.5q195 0 201 311h168q0 -221 -102.5 -342t-286.5 -121q-205 0 -302.5 161t-97.5 493z" />
<glyph unicode="d" horiz-adv-x="1034" d="M96 649q0 289 100.5 444.5t276.5 155.5q98 0 171 -43t93 -110v538h172v-1634h-161v154q-23 -80 -94.5 -129.5t-170.5 -49.5q-186 0 -286.5 171t-100.5 503zM283 633q0 -260 53 -382t174 -122q133 0 185.5 116.5t52.5 375.5q0 254 -49.5 365.5t-180.5 111.5 q-121 0 -178 -114.5t-57 -350.5z" />
<glyph unicode="e" horiz-adv-x="956" d="M96 598q0 338 93.5 498.5t295.5 160.5q375 0 375 -546q0 -70 -2 -107h-586v-53q0 -227 51.5 -333.5t170.5 -106.5q88 0 142 77.5t54 214.5v11h166q-2 -215 -99.5 -331t-275.5 -116q-199 0 -292 154.5t-93 476.5zM272 743h414v33q0 340 -197 340q-217 0 -217 -373z" />
<glyph unicode="f" horiz-adv-x="565" d="M4 1083v140h172v163q0 133 69.5 196t219.5 63q20 0 72 -11v-151q-33 6 -70 6q-61 0 -88 -24.5t-27 -84.5v-157h185v-140h-185v-1083h-176v1083h-172z" />
<glyph unicode="g" horiz-adv-x="1032" d="M98 647q0 602 383 602q96 0 165 -44t95 -126v144h166v-1166q0 -227 -109.5 -349t-305.5 -122q-158 0 -257.5 83t-99.5 212v6h170q10 -150 199 -149q127 0 182 82t55 262q0 6 -1 27.5t-1 37.5q-74 -168 -272 -167q-369 -1 -369 667zM279 608q0 -248 52 -362.5t175 -114.5 q131 0 183 118t52 376q0 246 -55 362.5t-184 116.5q-119 0 -171 -119t-52 -377z" />
<glyph unicode="h" horiz-adv-x="1021" d="M131 0v1634h172v-544q90 158 295 157q141 0 219 -72.5t78 -201.5v-973h-170v889q0 106 -40 156.5t-132 50.5q-113 0 -181.5 -72t-68.5 -197v-827h-172z" />
<glyph unicode="i" horiz-adv-x="432" d="M129 0v1223h176v-1223h-176zM129 1413v221h176v-221h-176z" />
<glyph unicode="j" horiz-adv-x="452" d="M23 -266h8q80 0 102.5 32.5t22.5 129.5v1327h170v-1340q0 -156 -66.5 -225.5t-216.5 -69.5h-20v146zM156 1415v219h170v-221z" />
<glyph unicode="k" horiz-adv-x="921" d="M131 0v1634h164v-966l418 555h200l-364 -465l393 -758h-209l-303 602l-135 -168v-434h-164z" />
<glyph unicode="l" horiz-adv-x="425" d="M129 0v1634h168v-1634h-168z" />
<glyph unicode="m" horiz-adv-x="1622" d="M131 0v1223h158v-150q98 176 321 176q211 0 264 -178q106 178 318 178q147 0 226 -76.5t79 -222.5v-950h-176v844q0 139 -34 196.5t-136 57.5q-111 0 -179.5 -70t-68.5 -178v-850h-176v850q0 131 -40 189.5t-136 58.5q-113 0 -183.5 -66.5t-70.5 -173.5v-858h-166z" />
<glyph unicode="n" horiz-adv-x="1021" d="M131 0v1223h160v-154q88 178 307 178q168 0 232.5 -85t64.5 -277v-885h-170v897q0 199 -172 199q-115 0 -182.5 -72t-67.5 -197v-827h-172z" />
<glyph unicode="o" horiz-adv-x="1050" d="M96 610q0 328 104.5 487.5t323.5 159.5q221 0 325.5 -158.5t104.5 -488t-103 -486.5t-327 -157q-225 0 -326.5 155.5t-101.5 487.5zM279 610q0 -264 53 -380.5t192 -116.5q135 0 190.5 117.5t55.5 379.5t-54 379t-192 117q-139 0 -192 -117t-53 -379z" />
<glyph unicode="p" horiz-adv-x="1034" d="M131 -414v1637h164v-156q20 80 93 131t167 51q387 0 387 -637q0 -326 -90 -482.5t-283 -156.5q-182 0 -262 158v-545h-176zM295 614q0 -489 244 -489q117 0 167 118.5t50 372.5q0 250 -51.5 366t-172.5 116q-129 0 -183 -114t-54 -370z" />
<glyph unicode="q" horiz-adv-x="1034" d="M94 612q0 637 387 637q92 0 165 -51t93 -131v156h166v-1637h-176v545q-84 -158 -264 -158q-193 0 -282 156.5t-89 482.5zM279 616q0 -254 50 -372.5t167 -118.5q244 0 243 489q0 256 -54 370t-183 114q-119 0 -171 -116t-52 -366z" />
<glyph unicode="r" horiz-adv-x="632" d="M131 0v1223h158v-201q39 109 113.5 168t168.5 59q49 0 74 -4v-182q-29 16 -67 16q-129 0 -204 -87t-75 -244v-748h-168z" />
<glyph unicode="s" horiz-adv-x="964" d="M98 342v25h170q0 -2 -3 -17.5t-3 -23.5q0 -205 223 -205q98 0 155.5 54t57.5 144q0 53 -12 88t-49 60t-66.5 38t-99.5 36q-203 72 -278.5 144.5t-75.5 232t94 249.5t262 90q360 0 361 -339v-19h-164q-4 111 -49.5 161t-139.5 50q-201 0 -200 -186q0 -82 51 -127 q33 -27 76 -45.5t115.5 -42t109.5 -37.5q127 -49 181 -123t54 -199q0 -184 -106.5 -283.5t-300.5 -99.5q-363 0 -363 375z" />
<glyph unicode="t" horiz-adv-x="534" d="M-10 1081v142h168v325h168v-325h198v-142h-198v-829q0 -80 30.5 -101.5t128.5 -21.5q23 0 39 2v-151q-115 -4 -127 -5q-240 0 -239 195v911h-168z" />
<glyph unicode="u" horiz-adv-x="1021" d="M127 283v940h178v-944q0 -76 37 -118t107 -42q121 0 190.5 76.5t69.5 216.5v811h174v-1223h-158v158q-78 -190 -305 -191q-154 0 -223.5 76t-69.5 240z" />
<glyph unicode="v" horiz-adv-x="925" d="M35 1223h186l240 -961l250 961h178l-338 -1223h-186z" />
<glyph unicode="w" horiz-adv-x="1447" d="M45 1223h176l228 -977l188 977h174l211 -979l211 979h170l-297 -1223h-168l-213 948l-188 -948h-179z" />
<glyph unicode="x" horiz-adv-x="876" d="M-20 0l348 633l-324 590h197l233 -441l240 441h192l-327 -578l354 -645h-199l-264 496l-256 -496h-194z" />
<glyph unicode="y" horiz-adv-x="964" d="M37 1223h184l262 -985l269 985h176l-375 -1278q-57 -197 -132 -277t-224 -80q-37 0 -115 21v153q53 -20 106 -20q80 0 123 55.5t84 192.5z" />
<glyph unicode="z" horiz-adv-x="841" d="M49 0v156l524 911h-501v156h706v-138l-534 -921h544v-164h-739z" />
<glyph unicode="{" horiz-adv-x="1087" d="M178 485v158q10 0 25.5 -1t21.5 -1q141 0 197.5 64.5t56.5 220.5v262q0 139 19.5 212t87.5 113q88 53 295 54h39v-158h-43q-131 0 -173 -50t-42 -194v-256q0 -160 -43.5 -236.5t-169.5 -109.5q127 -33 170 -108.5t43 -237.5v-256q0 -143 40.5 -193.5t176.5 -50.5h41v-155 h-46q-207 0 -288 51q-68 41 -87.5 113.5t-19.5 212.5v262q0 156 -57 221t-199 65q-6 0 -22.5 -1t-22.5 -1z" />
<glyph unicode="|" horiz-adv-x="1087" d="M465 -514v2175h160v-2175h-160z" />
<glyph unicode="}" horiz-adv-x="1087" d="M170 -283h41q133 0 175 51.5t42 194.5v254q0 160 43 236.5t170 109.5q-127 33 -170 110t-43 236v256q0 143 -42 193.5t-175 50.5h-41v158h39q209 0 295 -54q68 -41 87 -113.5t19 -211.5v-262q0 -156 56.5 -220.5t195.5 -64.5q8 0 23.5 1t25.5 1v-158q-8 0 -23.5 1 t-21.5 1q-143 0 -199.5 -64.5t-56.5 -221.5v-262q0 -139 -19.5 -212t-86.5 -114q-82 -51 -289 -51h-45v155z" />
<glyph unicode="~" horiz-adv-x="1810" d="M188 479v164q227 154 412 154q113 0 309 -66q10 -4 50 -18l55 -20q14 -5 47 -15t52.5 -14.5t47 -8.5t51.5 -4q178 0 412 166v-166q-217 -150 -414 -149q-27 0 -55 4l-49 7q-20 3 -54 13.5l-46.5 14.5t-52.5 18t-48 16q-205 70 -307 70q-172 0 -410 -166z" />
<glyph unicode="&#xa8;" horiz-adv-x="1087" d="M287 1391v182h166v-182h-166zM635 1391v182h166v-182h-166z" />
<glyph unicode="&#xa9;" horiz-adv-x="1810" d="M125 772q0 322 231 557q225 225 549 225q328 0 555 -227q229 -229 230 -555q0 -328 -228 -549q-240 -233 -557 -233q-319 0 -551 231q-229 234 -229 551zM225 772q0 -276 203 -479q203 -199 479.5 -199t481.5 201q197 193 196 477q0 287 -196 479q-197 201 -482 201 q-279 0 -477 -195q-205 -204 -205 -485zM492 778q0 213 116.5 342t302.5 129q152 0 252.5 -79.5t110.5 -206.5h-156q-29 170 -219 170q-109 0 -173 -94.5t-64 -266.5q0 -170 65.5 -261t183.5 -91q86 0 144.5 49t72.5 137h154q-10 -139 -113.5 -225t-263.5 -86 q-193 0 -303 127t-110 356z" />
<glyph unicode="&#xab;" horiz-adv-x="1048" d="M137 537v155l324 332v-199l-209 -213l209 -217v-196zM586 537v155l323 332v-199l-209 -213l209 -217v-196z" />
<glyph unicode="&#xad;" horiz-adv-x="716" d="M96 516v191h525v-191h-525z" />
<glyph unicode="&#xae;" horiz-adv-x="1810" d="M125 772q0 319 235 561q217 221 545 221q330 0 557 -233q227 -227 228 -549q0 -332 -230 -551q-238 -231 -555 -231q-324 0 -553 233q-227 234 -227 549zM225 772q0 -272 201 -477q201 -201 473 -201q279 0 487 199q199 193 199 473q0 293 -194 483q-199 203 -484 203 q-283 0 -475 -192q-207 -214 -207 -488zM592 344v887h334q371 0 370 -244q0 -94 -53 -156.5t-149 -82.5l198 -404h-188l-180 377h-166v-377h-166zM758 827h141q117 0 171 33t54 109q0 82 -55 117.5t-174 35.5h-137v-295z" />
<glyph unicode="&#xb0;" horiz-adv-x="714" d="M51 1239q0 129 90 218t217 89t216.5 -90t89.5 -217q0 -125 -89.5 -215t-218.5 -90t-217 89t-88 216zM152 1241q0 -86 60 -147.5t146 -61.5t145.5 61.5t59.5 147.5q0 84 -59.5 144.5t-145.5 60.5t-146 -59.5t-60 -145.5z" />
<glyph unicode="&#xb4;" horiz-adv-x="1050" d="M403 1352l117 282h211l-199 -282h-129z" />
<glyph unicode="&#xb8;" horiz-adv-x="999" d="M303 -362q143 -27 189 -27q117 0 116 90q0 92 -119 92q-14 0 -38 -4v211h79v-109h7q104 0 161.5 -49t57.5 -135q0 -207 -260 -207q-84 0 -193 29v109z" />
<glyph unicode="&#xbb;" horiz-adv-x="1048" d="M137 199v196l211 217l-211 213v199l324 -332v-155zM586 199v196l211 217l-211 213v199l323 -332v-155z" />
<glyph unicode="&#xd3;" horiz-adv-x="1273" d="M113 817q0 449 120.5 652.5t403.5 203.5q285 0 404.5 -201.5t119.5 -654t-119.5 -654.5t-404.5 -202q-281 0 -402.5 205t-121.5 651zM303 817q0 -377 70.5 -536.5t263.5 -159.5q197 0 266.5 157.5t69.5 538.5t-69.5 537.5t-266.5 156.5q-195 0 -264.5 -158.5 t-69.5 -535.5zM539 1790l116 283h211l-198 -283h-129z" />
<glyph unicode="&#xf3;" horiz-adv-x="1050" d="M96 610q0 328 104.5 487.5t323.5 159.5q221 0 325.5 -158.5t104.5 -488t-103 -486.5t-327 -157q-225 0 -326.5 155.5t-101.5 487.5zM279 610q0 -264 53 -380.5t192 -116.5q135 0 190.5 117.5t55.5 379.5t-54 379t-192 117q-139 0 -192 -117t-53 -379zM430 1352l115 282 h211l-197 -282h-129z" />
<glyph unicode="&#x104;" horiz-adv-x="1196" d="M33 0l446 1634h232l452 -1634q-55 0 -93 -57.5t-38 -118.5q0 -94 103 -82l43 4v-154l-76 -4q-117 -6 -178.5 41t-61.5 138q0 133 111 256l-119 448h-516l-121 -471h-184zM379 637h434l-217 856z" />
<glyph unicode="&#x105;" horiz-adv-x="968" d="M96 309q0 178 79 255t284 145q119 39 154.5 63.5t35.5 83.5v113q0 76 -44 110.5t-136 34.5q-180 0 -180 -194v-23h-160q2 188 88 274t272 86q172 0 253 -78.5t81 -250.5v-715q0 -88 72 -88q8 0 29 4v-131q-63 0 -104.5 -55.5t-41.5 -118.5q0 -94 103 -82l43 4v-154 l-76 -4q-117 -6 -178.5 41t-61.5 138q0 135 111 258q-49 41 -53 139q-82 -195 -289 -195q-133 0 -207 89t-74 251zM268 311q0 -92 40 -142t114 -50q104 0 168.5 81t64.5 218v241q-45 -49 -196 -100q-109 -39 -150 -86t-41 -162z" />
<glyph unicode="&#x106;" horiz-adv-x="1228" d="M113 813q0 449 118.5 654.5t391.5 205.5q223 0 345 -130t122 -369v-19h-177q0 168 -78.5 263t-213.5 95q-172 0 -243 -165.5t-71 -534.5q0 -356 73 -517t251 -161q137 0 213 112.5t76 325.5v27h180q-2 -313 -129 -476t-363 -163q-254 0 -374.5 210t-120.5 642zM532 1790 l115 283h211l-196 -283h-130z" />
<glyph unicode="&#x107;" horiz-adv-x="999" d="M100 621q0 635 410 634q170 0 270.5 -104t100.5 -285v-26h-168q-10 262 -195 262q-129 0 -181 -115t-52 -375t52 -376.5t183 -116.5q195 0 201 311h168q0 -221 -102.5 -342t-286.5 -121q-205 0 -302.5 161t-97.5 493zM426 1352l115 282h211l-197 -282h-129z" />
<glyph unicode="&#x118;" horiz-adv-x="1064" d="M145 0v1634h811v-170h-630v-524h589v-166h-589v-602h637v-172h-64q-55 0 -92 -57.5t-37 -118.5q0 -94 102 -82l43 4v-154l-75 -4q-119 -6 -179.5 41t-60.5 138q0 125 92 233h-547z" />
<glyph unicode="&#x119;" horiz-adv-x="956" d="M96 598q0 338 93.5 498.5t295.5 160.5q375 0 375 -546q0 -70 -2 -107h-586v-53q0 -227 51.5 -333.5t170.5 -106.5q88 0 142 77.5t54 214.5v11h166q-2 -307 -199 -410q-104 -53 -104 -180q0 -49 23.5 -68.5t78.5 -13.5l43 4v-154l-75 -4q-119 -6 -179.5 41t-60.5 138 q0 109 68 200q-182 14 -268.5 168t-86.5 463zM272 743h414v33q0 340 -197 340q-217 0 -217 -373z" />
<glyph unicode="&#x141;" horiz-adv-x="1054" d="M57 664v188l109 74v708h182v-583l287 200v-190l-287 -201v-684h651v-176h-833v741z" />
<glyph unicode="&#x142;" horiz-adv-x="454" d="M43 952v144l109 75v463h170v-356l110 78v-144l-110 -77v-1135h-170v1030z" />
<glyph unicode="&#x143;" horiz-adv-x="1261" d="M145 0v1634h244l567 -1401l-16 1401h176v-1634h-233l-576 1444l15 -1444h-177zM571 1790l115 283h211l-197 -283h-129z" />
<glyph unicode="&#x144;" horiz-adv-x="1021" d="M131 0v1223h160v-154q88 178 307 178q168 0 232.5 -85t64.5 -277v-885h-170v897q0 199 -172 199q-115 0 -182.5 -72t-67.5 -197v-827h-172zM422 1352l115 282h211l-197 -282h-129z" />
<glyph unicode="&#x15a;" horiz-adv-x="1165" d="M109 465q0 10 1 28.5t1 26.5h174v-59q0 -336 305 -336q135 0 213 81t78 224q0 131 -56.5 189.5t-203.5 113.5q-41 16 -116 43t-107.5 40t-70.5 31.5t-57 35.5q-135 117 -135 338q0 213 117 332.5t328 119.5q201 0 314.5 -110.5t113.5 -307.5q0 -6 -2 -20t-2 -23h-166v19 q0 137 -69 212t-191 75q-125 0 -199 -72t-74 -195q0 -131 59.5 -189t206.5 -114l73 -26q50 -18 71 -27l57 -23q37 -14 55.5 -22t43 -20.5t40 -23.5t27.5 -22q119 -111 119 -329q0 -233 -128 -362.5t-360 -129.5q-227 0 -343.5 127t-116.5 375zM504 1790l117 283h210 l-198 -283h-129z" />
<glyph unicode="&#x15b;" horiz-adv-x="964" d="M98 342v25h170q0 -2 -3 -17.5t-3 -23.5q0 -205 223 -205q98 0 155.5 54t57.5 144q0 53 -12 88t-49 60t-66.5 38t-99.5 36q-203 72 -278.5 144.5t-75.5 232t94 249.5t262 90q360 0 361 -339v-19h-164q-4 111 -49.5 161t-139.5 50q-201 0 -200 -186q0 -82 51 -127 q33 -27 76 -45.5t115.5 -42t109.5 -37.5q127 -49 181 -123t54 -199q0 -184 -106.5 -283.5t-300.5 -99.5q-363 0 -363 375zM401 1352l117 282h211l-199 -282h-129z" />
<glyph unicode="&#x179;" horiz-adv-x="960" d="M49 0v170l660 1294h-623v170h817v-166l-655 -1292h663v-176h-862zM385 1790l115 283h211l-197 -283h-129z" />
<glyph unicode="&#x17a;" horiz-adv-x="841" d="M49 0v156l524 911h-501v156h706v-138l-534 -921h544v-164h-739zM315 1352l115 282h211l-197 -282h-129z" />
<glyph unicode="&#x17b;" horiz-adv-x="960" d="M49 0v170l660 1294h-623v170h817v-166l-655 -1292h663v-176h-862zM416 1849v224h176v-224h-176z" />
<glyph unicode="&#x17c;" horiz-adv-x="841" d="M49 0v156l524 911h-501v156h706v-138l-534 -921h544v-164h-739zM346 1413v221h176v-221h-176z" />
<glyph unicode="&#x2c6;" horiz-adv-x="2174" d="M446 956l541 592h199l540 -592h-192l-447 447l-450 -447h-191z" />
<glyph unicode="&#x2da;" horiz-adv-x="540" d="M-305 428q0 129 90 218t217 89t216.5 -90t89.5 -217q0 -125 -89.5 -215t-218.5 -90t-217 89t-88 216zM-204 430q0 -86 60 -147.5t146 -61.5t145.5 61.5t59.5 147.5q0 84 -59.5 144.5t-145.5 60.5t-146 -59.5t-60 -145.5z" />
<glyph unicode="&#x2dc;" horiz-adv-x="540" d="M-717 123v164q227 154 412 154q113 0 309 -66q10 -4 50 -18l55 -20q14 -5 47 -15t52.5 -14.5t47 -8.5t51.5 -4q178 0 412 166v-166q-217 -150 -414 -149q-27 0 -55 4l-49 7q-20 3 -54 13.5l-46.5 14.5t-52.5 18t-48 16q-205 70 -307 70q-172 0 -410 -166z" />
<glyph unicode="&#x2000;" horiz-adv-x="1036" />
<glyph unicode="&#x2001;" horiz-adv-x="2072" />
<glyph unicode="&#x2002;" horiz-adv-x="1036" />
<glyph unicode="&#x2003;" horiz-adv-x="2072" />
<glyph unicode="&#x2004;" horiz-adv-x="690" />
<glyph unicode="&#x2005;" horiz-adv-x="518" />
<glyph unicode="&#x2006;" horiz-adv-x="344" />
<glyph unicode="&#x2007;" horiz-adv-x="344" />
<glyph unicode="&#x2008;" horiz-adv-x="258" />
<glyph unicode="&#x2009;" horiz-adv-x="413" />
<glyph unicode="&#x200a;" horiz-adv-x="114" />
<glyph unicode="&#x2010;" horiz-adv-x="716" d="M96 516v191h525v-191h-525z" />
<glyph unicode="&#x2011;" horiz-adv-x="716" d="M96 516v191h525v-191h-525z" />
<glyph unicode="&#x2012;" horiz-adv-x="716" d="M96 516v191h525v-191h-525z" />
<glyph unicode="&#x2013;" horiz-adv-x="1087" d="M0 532v158h1087v-158h-1087z" />
<glyph unicode="&#x2014;" horiz-adv-x="2174" d="M0 532v158h2175v-158h-2175z" />
<glyph unicode="&#x2018;" horiz-adv-x="532" d="M170 1137v225q0 125 52 208t140 103v-104q-92 -16 -92 -197v-10h92v-225h-192z" />
<glyph unicode="&#x2019;" horiz-adv-x="532" d="M170 1100v102q92 16 92 201v10h-92v221h192v-223q0 -125 -52 -206.5t-140 -104.5z" />
<glyph unicode="&#x201a;" horiz-adv-x="532" d="M170 0v223h192v-223q0 -125 -52 -208t-140 -105v102q92 16 92 201v10h-92z" />
<glyph unicode="&#x201c;" horiz-adv-x="843" d="M170 1137v225q0 125 52 207t140 102v-102q-92 -16 -92 -199v-12h92v-221h-192zM479 1137v225q0 125 52.5 207t140.5 102v-102q-94 -16 -94 -199v-12h94v-221h-193z" />
<glyph unicode="&#x201d;" horiz-adv-x="843" d="M170 1100v102q92 16 92 201v10h-92v221h192v-223q0 -125 -52 -206.5t-140 -104.5zM479 1100v102q92 16 92 201v10h-92v221h193v-223q0 -125 -52.5 -206.5t-140.5 -104.5z" />
<glyph unicode="&#x201e;" horiz-adv-x="843" d="M170 0v223h192v-223q0 -125 -52 -208t-140 -105v102q92 16 92 201v10h-92zM479 0v223h193v-223q0 -125 -52.5 -208t-140.5 -105v102q92 16 92 201v10h-92z" />
<glyph unicode="&#x2026;" horiz-adv-x="2174" d="M266 0v223h193v-223h-193zM989 0v223h193v-223h-193zM1716 0v223h193v-223h-193z" />
<glyph unicode="&#x202f;" horiz-adv-x="413" />
<glyph unicode="&#x2039;" horiz-adv-x="600" d="M139 537v155l322 332v-199l-209 -213l209 -217v-196z" />
<glyph unicode="&#x203a;" horiz-adv-x="600" d="M139 199v196l209 213l-209 217v199l322 -338v-156z" />
<glyph unicode="&#x205f;" horiz-adv-x="518" />
<glyph unicode="&#x2122;" horiz-adv-x="1810" d="M256 1462v86h481v-86h-182v-485h-117v485h-182zM862 977v571h160l160 -409l151 409h158v-571h-105v471l-176 -471h-57l-186 471v-471h-105z" />
<glyph unicode="&#xe000;" horiz-adv-x="1225" d="M0 1225h1225v-1225h-1225v1225z" />
</font>
</defs>
</svg>
